<?xml version="1.0" encoding="utf-8"?>
<!-- Generator: Adobe Illustrator 22.1.0, SVG Export Plug-In . SVG Version: 6.00 Build 0)  -->
<svg version="1.1" xmlns="http://www.w3.org/2000/svg" xmlns:xlink="http://www.w3.org/1999/xlink" x="0px" y="0px"
	 viewBox="0 0 350 314" style="enable-background:new 0 0 350 314;" xml:space="preserve">
<style type="text/css">
	.st0{fill:none;stroke:#333333;}
	.st1{fill:#666666;}
	.st2{font-family:'Helvetica';}
	.st3{font-size:12px;}
	.st4{fill:#333333;}
	.st5{font-size:14px;}
	.st6{fill:#B97DE4;stroke:#673787;stroke-miterlimit:10;}
	.st7{fill:none;stroke:#000000;stroke-linecap:round;stroke-miterlimit:10;}
	.st8{fill:#262626;}
	.st9{fill:#FFFFFF;}
	.st10{fill:none;stroke:#FF0000;stroke-width:1.5;}
	.st11{fill:#FF0000;}
</style>
<g id="Layer_2">
	<line class="st0" x1="47.3" y1="55.7" x2="41.7" y2="55.7"/>
	<line class="st0" x1="46.9" y1="130" x2="41.7" y2="130"/>
	<line class="st0" x1="46.9" y1="204.3" x2="41.7" y2="204.3"/>
	<line class="st0" x1="124.4" y1="278.8" x2="124.4" y2="284"/>
	<line class="st0" x1="47" y1="55.7" x2="47" y2="278.8"/>
	<line class="st0" x1="208" y1="279.1" x2="46.7" y2="279.1"/>
	<g>
		<text transform="matrix(1 0 0 1 36.1689 297.0957)" class="st1 st2 st3">0</text>
	</g>
	<text transform="matrix(1 0 0 1 120.9473 297.0957)" class="st1 st2 st3">A</text>
	<text transform="matrix(1 0 0 1 21.0762 207.25)" class="st1 st2 st3">0.1</text>
	<text transform="matrix(1 0 0 1 21.0762 132.917)" class="st1 st2 st3">0.2</text>
	<text transform="matrix(1 0 0 1 21.0762 58.917)" class="st1 st2 st3">0.3</text>
	<text transform="matrix(1 0 0 1 20.7178 34.6909)" class="st4 st2 st5">(Scale)</text>
	<text transform="matrix(1 0 0 1 209 99.0244)"><tspan x="0" y="0" class="st4 st2 st5">Density Plot</tspan><tspan x="0" y="16.8" class="st4 st2 st5">Width = Frequency</tspan></text>
	<text transform="matrix(1 0 0 1 209 168.6909)" class="st4 st2 st5">Median</text>
	<text transform="matrix(1 0 0 1 209 220.3579)" class="st4 st2 st5">Interquartile range</text>
	<text transform="matrix(1 0 0 1 209 46.6665)"><tspan x="0" y="0" class="st4 st2 st5">Upper Adjacent</tspan><tspan x="0" y="16.8" class="st4 st2 st5">Value</tspan></text>
	<text transform="matrix(1 0 0 1 209 248.1665)"><tspan x="0" y="0" class="st4 st2 st5">Lower Adjacent</tspan><tspan x="0" y="16.8" class="st4 st2 st5">Value</tspan></text>
	<path class="st6" d="M125.2,73.8c0,0-0.1,0.7,0.1,2c0.2,1.3,0.6,3.3,1.4,5.8c0.8,2.5,2.1,5.5,4.1,9c1,1.7,2.1,3.6,3.4,5.5
		c0.7,1,1.5,2,2.3,3c0.4,0.5,0.8,1,1.3,1.5c0.5,0.5,1,1.1,1.5,1.6c4.1,4.3,10.1,8.9,15.6,13.8c2.9,2.4,5.3,5,7.3,7.5
		c2,2.6,3.3,5.2,4.1,7.9c0.4,1.3,0.8,2.7,0.2,4c-0.5,1.4-1.6,2.7-3.4,4.1c-0.8,0.7-1.9,1.4-3,2.1c-1.2,0.7-2.4,1.4-3.6,2.1
		c-2.4,1.4-5,2.8-7.1,4.2c-2.1,1.4-3.6,2.8-4.4,4.2c-0.8,1.4-0.8,2.8-0.6,4.2c0.4,2.8,1.9,5.7,4.4,8.5c2.4,2.8,5.9,5.7,8.9,8.5
		c3.2,2.8,6.1,5.7,7.7,8.5c1.7,2.8,2.3,5.6,1.8,8.3c-0.4,2.7-1.4,5.5-3,8.1c-3.1,5.3-9,10.5-14.7,15.4c-1.4,1.2-2.7,2.4-4,3.6
		c-1.3,1.2-2.6,2.4-3.7,3.5c-0.6,0.6-1.1,1.1-1.7,1.7c-0.5,0.6-1,1.1-1.5,1.7c-1,1.1-1.8,2.2-2.6,3.3c-1.6,2.1-2.7,4.2-3.8,6.1
		c-0.5,1-1,1.9-1.5,2.8c-0.4,0.9-0.9,1.8-1.3,2.7c-1.6,3.5-2.7,6.5-3.4,9c-1.4,5-1.2,7.8-1.2,7.8c0,0.4-0.3,0.7-0.7,0.8
		c-0.4,0-0.7-0.3-0.8-0.7c0,0,0-0.1,0-0.1c0,0,0.2-2.8-1.2-7.8c-0.7-2.5-1.8-5.5-3.4-9c-0.4-0.9-0.9-1.8-1.3-2.7
		c-0.5-0.9-1-1.9-1.5-2.8c-1.1-1.9-2.2-4-3.8-6.1c-0.8-1.1-1.6-2.2-2.6-3.3c-0.5-0.6-1-1.1-1.5-1.7c-0.5-0.6-1.1-1.1-1.7-1.7
		c-1.1-1.2-2.4-2.3-3.7-3.5c-1.3-1.2-2.6-2.4-4-3.6c-5.6-4.9-11.5-10-14.7-15.4c-1.6-2.7-2.6-5.4-3-8.1c-0.4-2.7,0.1-5.5,1.8-8.3
		c1.6-2.8,4.5-5.6,7.7-8.5c3-2.8,6.5-5.7,8.9-8.5c2.5-2.8,4-5.7,4.4-8.5c0.2-1.4,0.3-2.8-0.6-4.2c-0.8-1.4-2.3-2.8-4.4-4.2
		c-2-1.4-4.7-2.8-7.1-4.2c-1.2-0.7-2.4-1.4-3.6-2.1c-1.1-0.7-2.2-1.4-3-2.1c-1.8-1.4-2.9-2.7-3.4-4.1c-0.5-1.4-0.1-2.7,0.2-4
		c0.8-2.7,2.1-5.3,4.1-7.9c2-2.6,4.5-5.1,7.3-7.5c5.5-4.9,11.6-9.5,15.6-13.8c0.5-0.5,1-1.1,1.5-1.6c0.5-0.5,0.9-1,1.3-1.5
		c0.9-1,1.7-2,2.3-3c1.3-1.9,2.4-3.8,3.4-5.5c2-3.5,3.3-6.5,4.1-9c0.8-2.5,1.2-4.4,1.4-5.8c0.2-1.3,0.1-2,0.1-2
		c0-0.4,0.3-0.8,0.7-0.8c0.4,0,0.8,0.3,0.8,0.7C125.2,73.7,125.2,73.7,125.2,73.8z"/>
	<line class="st7" x1="124.4" y1="85.2" x2="124.4" y2="239.1"/>
	<rect x="116.1" y="135.3" class="st8" width="16.8" height="59.1"/>
	<path class="st9" d="M130.1,164.8c0,3.1-2.5,5.7-5.7,5.7c-3.1,0-5.7-2.5-5.7-5.7c0-3.1,2.5-5.7,5.7-5.7
		C127.6,159.2,130.1,161.7,130.1,164.8z"/>
</g>
<g id="Layer_1">
	<g>
		<g>
			<polyline class="st10" points="145.9,124.3 167.6,102.5 202,102.5 			"/>
			<g>
				<g>
					<path class="st9" d="M146.4,128.6c-1.3,1.3-3.5,1.3-4.8,0c-1.3-1.3-1.3-3.5,0-4.8c1.3-1.3,3.5-1.3,4.8,0
						C147.7,125.1,147.7,127.2,146.4,128.6z"/>
					<path class="st11" d="M146.7,128.9c1.5-1.5,1.5-3.9,0-5.4c-1.5-1.5-3.9-1.5-5.4,0c-1.5,1.5-1.5,3.9,0,5.4
						C142.8,130.4,145.2,130.4,146.7,128.9C148.2,127.4,145.2,130.4,146.7,128.9z M141.9,124.1c1.1-1.1,3-1.1,4.1,0
						c1.1,1.1,1.1,3,0,4.1c-1.1,1.1-3,1.1-4.1,0C140.8,127.1,140.8,125.2,141.9,124.1C143.1,123,140.8,125.2,141.9,124.1z"/>
				</g>
			</g>
		</g>
	</g>
	<g>
		<g>
			<polyline class="st10" points="124.6,184.2 156.4,215.9 202,215.9 			"/>
			<g>
				<g>
					<path class="st9" d="M127.2,181.9c-1.3-1.3-3.5-1.3-4.8,0c-1.3,1.3-1.3,3.5,0,4.8c1.3,1.3,3.5,1.3,4.8,0
						C128.5,185.4,128.5,183.2,127.2,181.9z"/>
					<path class="st11" d="M127.5,181.6c-1.5-1.5-3.9-1.5-5.4,0c-1.5,1.5-1.5,3.9,0,5.4c1.5,1.5,3.9,1.5,5.4,0
						C129,185.5,129,183.1,127.5,181.6C126,180.1,129,183.1,127.5,181.6z M122.7,186.4c-1.1-1.1-1.1-3,0-4.1c1.1-1.1,3-1.1,4.1,0
						c1.1,1.1,1.1,3,0,4.1C125.7,187.5,123.8,187.5,122.7,186.4C121.6,185.2,123.8,187.5,122.7,186.4z"/>
				</g>
			</g>
		</g>
	</g>
	<g>
		<g>
			<polyline class="st10" points="124.6,219.6 156.4,251.4 202,251.4 			"/>
			<g>
				<g>
					<path class="st9" d="M127.2,217.4c-1.3-1.3-3.5-1.3-4.8,0c-1.3,1.3-1.3,3.5,0,4.8c1.3,1.3,3.5,1.3,4.8,0
						C128.5,220.8,128.5,218.7,127.2,217.4z"/>
					<path class="st11" d="M127.5,217.1c-1.5-1.5-3.9-1.5-5.4,0c-1.5,1.5-1.5,3.9,0,5.4c1.5,1.5,3.9,1.5,5.4,0
						C129,221,129,218.5,127.5,217.1C126,215.6,129,218.5,127.5,217.1z M122.7,221.8c-1.1-1.1-1.1-3,0-4.1c1.1-1.1,3-1.1,4.1,0
						c1.1,1.1,1.1,3,0,4.1C125.7,223,123.8,223,122.7,221.8C121.6,220.7,123.8,223,122.7,221.8z"/>
				</g>
			</g>
		</g>
	</g>
	<g>
		<g>
			<polyline class="st10" points="127,104 181.3,49.7 202,49.7 			"/>
			<g>
				<g>
					<path class="st9" d="M127,108.8c-1.3,1.3-3.5,1.3-4.8,0c-1.3-1.3-1.3-3.5,0-4.8c1.3-1.3,3.5-1.3,4.8,0
						C128.3,105.3,128.3,107.5,127,108.8z"/>
					<path class="st11" d="M127.3,109.1c1.5-1.5,1.5-3.9,0-5.4c-1.5-1.5-3.9-1.5-5.4,0c-1.5,1.5-1.5,3.9,0,5.4
						C123.4,110.6,125.8,110.6,127.3,109.1C128.8,107.6,125.8,110.6,127.3,109.1z M122.5,104.3c1.1-1.1,3-1.1,4.1,0
						c1.1,1.1,1.1,3,0,4.1c-1.1,1.1-3,1.1-4.1,0C121.4,107.3,121.4,105.5,122.5,104.3C123.6,103.2,121.4,105.5,122.5,104.3z"/>
				</g>
			</g>
		</g>
	</g>
	<g>
		<g>
			<line class="st10" x1="128.4" y1="164.8" x2="202" y2="164.8"/>
			<g>
				<g>
					<circle class="st9" cx="128.6" cy="164.8" r="3.4"/>
					<path class="st11" d="M128.6,168.7c2.1,0,3.8-1.7,3.8-3.8s-1.7-3.8-3.8-3.8c-2.1,0-3.8,1.7-3.8,3.8S126.5,168.7,128.6,168.7
						C130.7,168.7,126.5,168.7,128.6,168.7z M128.6,161.9c1.6,0,2.9,1.3,2.9,2.9c0,1.6-1.3,2.9-2.9,2.9c-1.6,0-2.9-1.3-2.9-2.9
						C125.7,163.2,127,161.9,128.6,161.9C130.2,161.9,127,161.9,128.6,161.9z"/>
				</g>
			</g>
		</g>
	</g>
</g>
</svg>
